<svg xmlns="http://www.w3.org/2000/svg" viewBox="0 0 32 32" width="32" height="32">
  <defs>
    <linearGradient id="grad1" x1="0%" y1="0%" x2="100%" y2="100%">
      <stop offset="0%" style="stop-color:#ec4899;stop-opacity:1" />
      <stop offset="100%" style="stop-color:#0ea5e9;stop-opacity:1" />
    </linearGradient>
  </defs>
  <circle cx="16" cy="16" r="15" fill="url(#grad1)" stroke="#ec4899" stroke-width="1"/>
  <path d="M16 8 C18 6, 20 6, 22 8 C20 10, 18 10, 16 8 Z" fill="white"/>
  <path d="M16 24 C18 22, 20 22, 22 24 C20 26, 18 26, 16 24 Z" fill="white"/>
  <path d="M8 16 C6 18, 6 20, 8 22 C10 20, 10 18, 8 16 Z" fill="white"/>
  <path d="M24 16 C26 18, 26 20, 24 22 C22 20, 22 18, 24 16 Z" fill="white"/>
  <circle cx="16" cy="16" r="3" fill="white"/>
</svg>
